<svg xmlns="http://www.w3.org/2000/svg" viewBox="0 0 320 320" role="img" aria-label="NJUPT Initial 队徽">
  <rect width="320" height="320" fill="#EDEDED"/>
  <g fill="#111111">
    <!-- left bars -->
    <polygon points="78,78 96,70 96,188 78,196"/>
    <polygon points="112,66 132,56 132,204 112,214"/>
    <polygon points="148,88 166,80 166,232 148,240"/>
    <!-- upper right block -->
    <polygon points="188,72 248,72 262,110 210,110 210,148 188,148"/>
    <!-- lower right hook -->
    <polygon points="188,168 228,168 228,196 248,196 248,230 210,230 210,206 188,206"/>
    <polygon points="248,168 272,168 272,230 248,230 248,206 232,206 232,188 248,188"/>
  </g>
  <text x="160" y="286" text-anchor="middle" fill="#111111" font-family="Segoe UI, Arial Black, sans-serif" font-size="34" font-weight="700" letter-spacing="8">INITIAL</text>
</svg>
